cover
 
http://www.flix66.com/wp-content/uploads/2010/09/kids-are-alright-Blu-ray.jpg

Genre:Comedy | Drama
Language:English
IMDb:http://www.imdb.com/title/tt0842926/
Source:720p.Bluray.x264.CBGB

Complete name :The.Kids.Are.All.Right.720p.BRRIP.H264.Feel-Free
Format : MPEG-4
Format profile : Base Media
Codec ID : isom
File size : 1.70 GiB
Duration : 1h 46mn
Overall bit rate : 2 288 Kbps
Video #1
Codec ID : avc1
Codec ID/Info : Advanced Video Coding
Duration : 1h 46mn
Bit rate mode : Variable
Bit rate : 1 964 Kbps
Width : 1 280 pixels
Height : 696 pixels
Display aspect ratio : 16:9
Frame rate mode : Constant
Frame rate : 23.976 fps
Resolution : 24 bits
Colorimetry : 4:2:0
Scan type : Progressive
Bits/(Pixel*Frame) : 0.092
Stream size : 1.46 GiB (86%)
Audio #2
ID : 2
Format : AAC
Format/Info : Advanced Audio Codec
Format version : Version 4
Format profile : LC
Format settings, SBR : No
Codec ID : 40
Duration : 1h 46mn
Bit rate mode : Variable
Bit rate : 320 Kbps
Channel(s) : 6 channels
Channel positions : Front: L C R, Rear: L R, LFE
Sampling rate : 48.0 KHz
Resolution : 16 bits
Stream size : 243 MiB (14%)

Plot:
Two children conceived by artificial insemination bring their birth father into their family life.


screens
 
http://rapidhdd.com/images/81537vlcsnap-2010-11-04-16h35m46s7.png 
http://www.rapidhdd.com/images/815866vlcsnap-2010-11-04-16h36m02s157.png 
http://rapidhdd.com/images/746546vlcsnap-2010-11-04-16h35m50s67.png